<?xml version="1.0" encoding="UTF-8"?>
<svg id="illustration" xmlns="http://www.w3.org/2000/svg" xmlns:xlink="http://www.w3.org/1999/xlink" viewBox="0 0 429.03 332.71">
  <defs>
    <style>
      .cls-1 {
        fill: #80993c;
      }

      .cls-2 {
        fill: #fafeff;
      }

      .cls-3 {
        fill: url(#linear-gradient-2);
      }

      .cls-4 {
        fill: #ced8dc;
      }

      .cls-5 {
        fill: #fcfcfc;
      }

      .cls-6 {
        fill: #b2b6b7;
      }

      .cls-7 {
        fill: #b9c2c6;
      }

      .cls-8 {
        fill: #90969a;
      }

      .cls-9 {
        fill: #242824;
      }

      .cls-10 {
        fill: #007f4b;
      }

      .cls-11 {
        fill: #fff;
      }

      .cls-12 {
        fill: #2d332d;
      }

      .cls-13 {
        opacity: .5;
      }

      .cls-13, .cls-14, .cls-15 {
        fill: #b2b2b2;
        isolation: isolate;
      }

      .cls-16 {
        fill: url(#linear-gradient-4);
      }

      .cls-17 {
        fill: #b1ba56;
      }

      .cls-18 {
        fill: url(#linear-gradient-3);
      }

      .cls-19 {
        fill: url(#linear-gradient-5);
      }

      .cls-20 {
        fill: url(#linear-gradient-8);
      }

      .cls-21 {
        fill: #6b996b;
      }

      .cls-22 {
        fill: url(#linear-gradient-7);
      }

      .cls-23 {
        fill: #00663f;
      }

      .cls-24 {
        fill: url(#linear-gradient-9);
      }

      .cls-25 {
        fill: #00995e;
      }

      .cls-14 {
        opacity: .2;
      }

      .cls-26 {
        fill: url(#linear-gradient-6);
      }

      .cls-27 {
        fill: #719919;
      }

      .cls-28 {
        fill: #ccc;
      }

      .cls-29 {
        fill: #00b979;
      }

      .cls-30 {
        fill: #b3bcc0;
      }

      .cls-31 {
        fill: #aeb6ba;
      }

      .cls-15 {
        opacity: .1;
      }

      .cls-32 {
        fill: #404f23;
      }

      .cls-33 {
        fill: url(#linear-gradient);
      }

      .cls-34 {
        fill: #e1e4e5;
      }

      .cls-35 {
        fill: #90979b;
      }

      .cls-36 {
        fill: #cbd0d2;
      }
    </style>
    <linearGradient id="linear-gradient" x1="67.43" y1="-181.61" x2="67.43" y2="78.95" gradientTransform="translate(0 207.72)" gradientUnits="userSpaceOnUse">
      <stop offset="0" stop-color="#b2b2b2" stop-opacity=".5"/>
      <stop offset="1" stop-color="#dae1e5" stop-opacity="0"/>
    </linearGradient>
    <linearGradient id="linear-gradient-2" x1="237.92" y1="-181.76" x2="237.92" y2="78.95" gradientTransform="translate(0 207.72)" gradientUnits="userSpaceOnUse">
      <stop offset="0" stop-color="#b2b2b2" stop-opacity=".5"/>
      <stop offset="1" stop-color="#dae1e5" stop-opacity="0"/>
    </linearGradient>
    <linearGradient id="linear-gradient-3" x1="263.62" y1="-181.76" x2="263.62" y2="78.95" gradientTransform="translate(0 207.72)" gradientUnits="userSpaceOnUse">
      <stop offset="0" stop-color="#b2b2b2" stop-opacity=".5"/>
      <stop offset="1" stop-color="#dae1e5" stop-opacity="0"/>
    </linearGradient>
    <linearGradient id="linear-gradient-4" x1="289.67" y1="-181.76" x2="289.67" y2="78.95" gradientTransform="translate(0 207.72)" gradientUnits="userSpaceOnUse">
      <stop offset="0" stop-color="#b2b2b2" stop-opacity=".5"/>
      <stop offset="1" stop-color="#dae1e5" stop-opacity="0"/>
    </linearGradient>
    <linearGradient id="linear-gradient-5" x1="315.73" y1="-181.76" x2="315.73" y2="78.95" gradientTransform="translate(0 207.72)" gradientUnits="userSpaceOnUse">
      <stop offset="0" stop-color="#b2b2b2" stop-opacity=".5"/>
      <stop offset="1" stop-color="#dae1e5" stop-opacity="0"/>
    </linearGradient>
    <linearGradient id="linear-gradient-6" x1="341.78" y1="-181.76" x2="341.78" y2="78.95" gradientTransform="translate(0 207.72)" gradientUnits="userSpaceOnUse">
      <stop offset="0" stop-color="#b2b2b2" stop-opacity=".5"/>
      <stop offset="1" stop-color="#dae1e5" stop-opacity="0"/>
    </linearGradient>
    <linearGradient id="linear-gradient-7" x1="367.82" y1="-181.76" x2="367.82" y2="78.95" gradientTransform="translate(0 207.72)" gradientUnits="userSpaceOnUse">
      <stop offset="0" stop-color="#b2b2b2" stop-opacity=".5"/>
      <stop offset="1" stop-color="#dae1e5" stop-opacity="0"/>
    </linearGradient>
    <linearGradient id="linear-gradient-8" x1="393.88" y1="-181.76" x2="393.88" y2="78.95" gradientTransform="translate(0 207.72)" gradientUnits="userSpaceOnUse">
      <stop offset="0" stop-color="#b2b2b2" stop-opacity=".5"/>
      <stop offset="1" stop-color="#dae1e5" stop-opacity="0"/>
    </linearGradient>
    <linearGradient id="linear-gradient-9" x1="419.58" y1="-181.76" x2="419.58" y2="78.95" gradientTransform="translate(0 207.72)" gradientUnits="userSpaceOnUse">
      <stop offset="0" stop-color="#b2b2b2" stop-opacity=".5"/>
      <stop offset="1" stop-color="#dae1e5" stop-opacity="0"/>
    </linearGradient>
  </defs>
  <g>
    <rect class="cls-33" y="26.11" width="134.85" height="260.56"/>
    <rect class="cls-13" y=".17" width="134.85" height="19.73"/>
  </g>
  <g>
    <rect class="cls-3" x="228.47" y="25.96" width="18.9" height="260.71"/>
    <rect class="cls-18" x="253.82" y="25.96" width="19.6" height="260.71"/>
    <rect class="cls-16" x="279.87" y="25.96" width="19.61" height="260.71"/>
    <rect class="cls-19" x="305.92" y="25.96" width="19.61" height="260.71"/>
    <rect class="cls-26" x="331.97" y="25.96" width="19.61" height="260.71"/>
    <rect class="cls-22" x="358.02" y="25.96" width="19.61" height="260.71"/>
    <rect class="cls-20" x="384.08" y="25.96" width="19.6" height="260.71"/>
    <rect class="cls-24" x="410.13" y="25.96" width="18.9" height="260.71"/>
    <rect class="cls-13" x="228.47" width="18.9" height="19.75"/>
    <rect class="cls-13" x="253.82" width="19.6" height="19.75"/>
    <rect class="cls-13" x="279.87" width="19.61" height="19.75"/>
    <rect class="cls-13" x="305.92" width="19.61" height="19.75"/>
    <rect class="cls-13" x="331.97" width="19.61" height="19.75"/>
    <rect class="cls-13" x="358.02" width="19.61" height="19.75"/>
    <rect class="cls-13" x="384.08" width="19.6" height="19.75"/>
    <rect class="cls-13" x="410.13" width="18.9" height="19.75"/>
  </g>
  <ellipse class="cls-14" cx="234.28" cy="322.01" rx="176.84" ry="10.7"/>
  <g>
    <path class="cls-36" d="M323.82,221.77h32.54v8.5c0,2.58-2.09,4.66-4.66,4.66h-23.21c-2.58,0-4.66-2.09-4.66-4.66v-8.5h-.01Z"/>
    <path class="cls-8" d="M358.85,83.07c5.05.35,10.04,1.26,14.89,2.72,5.77,1.75,9.4,2.9,11.98,6.31,1.3,1.72,2.36,4.04,2.83,9.23.69,7.52-.49,13.91-2.56,21.76-3.08,11.65-4.35,12.17-6.86,22.4-2,8.13-2.99,12.19-3.02,17.09.03,8.71,1.6,17.35,4.66,25.5.99,2.08,1.64,4.3,1.92,6.58.57,5.39-1.31,9.99-2.93,12.98l-8.78.14-11.79-45.66c-2.65-24.68-5.3-49.36-7.95-74.04l7.6-5.01h0Z"/>
    <path class="cls-7" d="M331.78,81.91c6.86-.36,13.73-.22,20.57.41,11.08,1.03,17.11,2.57,21.8,6.03,2.84,2.1,4.4,3.51,5.35,5.21,1.96,3.53,1.63,7.15.82,12.61-1.7,11.5-3.29,17.55-3.29,17.55-2.61,9.93-3.23,10.48-5.9,20.29-3.73,13.75-3.94,17.94-3.98,20.16-.2,4.61.26,9.23,1.37,13.71,1.34,5.22,3.08,7.99,4.66,15.63.68,2.69.77,5.5.27,8.23-.44,2.15-1.28,4.19-2.47,6.03l-21.12.41c-6.03-42.1-12.07-84.19-18.1-126.29l.02.02Z"/>
    <path class="cls-8" d="M380.32,214.23c-.2,1.83-.72,6.86-4.11,8.78-1.36.67-2.89.9-4.39.67-4.7-.27-9.43.56-14.13.15-7.97-.72-15.4-.53-29.75-.15-3.64.11-8.84.32-15.2.83-1.4-4.48-3.05-8.88-4.95-13.17,1.01-.45,2.01-.91,3.02-1.37,6.84-.77,14.17-1.35,21.94-1.64,5.97-.22,11.69-.25,17.13-.13l29.89-.55c.59,2.14.78,4.38.55,6.59h0Z"/>
    <rect class="cls-36" x="335.48" y="233.29" width="8.62" height="74.87"/>
    <path class="cls-36" d="M356.83,320.91h-43.16c0-7.04,5.71-12.75,12.76-12.76h25.83c1.18,1.29,2.17,2.76,2.92,4.34,1.23,2.63,1.8,5.52,1.66,8.41h-.01Z"/>
    <path class="cls-6" d="M356.83,320.91c.14-2.9-.43-5.79-1.66-8.41-.75-1.58-1.73-3.05-2.92-4.34h1.05c7.04,0,12.75,5.71,12.74,12.76h-9.22.01Z"/>
    <path class="cls-8" d="M367.63,162.81l-28.87,2.91c-4.76.48-8.61,4.08-9.42,8.79-.55,3.19-1.03,6.56-1.41,10.09-.93,8.74-1.11,17.55-.55,26.33l9.05-.27c-1.25-7.98-1.62-16.07-1.1-24.13.19-2.87.48-5.61.85-8.19.3-2.06,1.81-3.73,3.83-4.23,3.87-.98,7.81-1.69,11.78-2.11,5.63-.47,11.3-.49,16.93-.07-1.01-2.83-.09-6.28-1.1-9.12h.01Z"/>
  </g>
  <g>
    <rect class="cls-5" x="277.02" y="300.16" width="9.16" height="11.61"/>
    <rect class="cls-5" x="322.09" y="289.84" width="8.25" height="9.15" transform="translate(-86.59 143.79) rotate(-22.02)"/>
    <path class="cls-28" d="M277.94,307.57c-1.14-.32-3.69.35-8.79,1.69-8.56,2.25-7.95,2.97-9.51,3.43-.28.08-.54.22-.76.41-.35.28-.6.67-.72,1.1-.23,1.2,1.38,2.68,2.65,3.34.24.12.5.23.76.32,1.02.36,2.1.52,3.18.46,4.21-.2,5.66.58,15.12-.46,1.42-.16,3.47-.4,5.95-.78.13-3.49.25-6.98.38-10.47-.95.91-2.13,1.54-3.41,1.83-2,.39-3.32-.44-4.85-.87h0Z"/>
    <path class="cls-28" d="M334.62,301.96c-.33-4.18-.13-4.35-.54-5.03-.49-.8-1.25-1.39-2.14-1.66-.76,1.14-1.8,2.08-3.02,2.72-1.9.93-3.36.48-4.95.49-1.19,0-3.58,1.36-8.35,4.06-8.02,4.54-7.28,5.08-8.73,5.95-.26.16-.49.36-.67.61-.29.36-.46.8-.5,1.27,0,1.23,1.88,2.23,3.26,2.52.27.05.54.09.81.1,1.09.07,2.19-.07,3.23-.43,4.11-1.35,5.7-.99,14.83-4.6,1.37-.54,3.35-1.34,5.72-2.39.35-.32.63-.7.82-1.14.29-.79.37-1.64.23-2.47h0Z"/>
    <path class="cls-12" d="M359.33,200.25c-2.47,4.62-6.82,6.89-9.46,7.95-5.45-.11-11.16-.09-17.13.13-7.78.29-15.1.87-21.94,1.64-1.01.47-2.01.92-3.02,1.37,1.9,4.29,3.56,8.69,4.95,13.17.94,3.03,1.64,5.69,2.17,7.95.76,3.24.88,4.42,2.06,9.6.34,1.51,2.02,8.85,4.66,17.96,2.15,7.43,5.26,17.12,9.66,28.45-.81.47-1.63.93-2.44,1.4-2.4,1.39-4.81,2.77-7.22,4.15-.91.54-1.83,1.05-2.75,1.58-9.15-17.91-15.76-30.23-20.2-38.31-1.84-3.35-4.59-8.33-8.05-15.37-6.06-12.33-4.82-11.72-8.95-19.59h-.01c-.07-.13-.15-.28-.22-.43-1.82-3.65-3.42-7.41-4.8-11.25-.87-2.19-1.38-4.5-1.51-6.86-.1-1.88-.18-4.04.96-6.17.91-1.57,2.24-2.86,3.84-3.7,6.1-3.58,12.82-6.17,17.15-7.95,3.18-1.31,6.33-2.71,8.56-3.73,1.96-.88,3.23-1.48,3.23-1.48,3.12-1.46,4.83-2.35,6.35-3,.02,0,.03,0,.05,0,.5-.22.98-.4,1.48-.58.01,0,.02,0,.04,0,.52-.17,1.07-.34,1.68-.5,3.49-.9,7.09-1.27,10.69-1.1,4.72.2,7.73,1.2,10.14,1.79,2.06.49,4.16.78,6.27.88,4.77.2,9.55-.32,14.17-1.57.85,3.69,1.31,7.45,1.37,11.23.07,5.34.13,8.76-1.79,12.35h0Z"/>
    <path class="cls-9" d="M315.23,177.77c-1.52.65-3.24,1.55-6.35,3,0,0-1.26.6-3.23,1.48-2.23,1.02-5.38,2.42-8.56,3.73-4.33,1.78-11.05,4.37-17.15,7.95-1.6.85-2.93,2.13-3.84,3.7-1.14,2.13-1.05,4.29-.96,6.17.13,2.35.64,4.67,1.51,6.86,1.37,3.84,2.97,7.6,4.8,11.25.07.15.15.29.22.43-.77.21-5.1,1.42-7.21,5.6-.92,1.87-1.3,3.96-1.09,6.03.11,1.23.42,2.44.91,3.57,1.85,4.34,3.25,13.76,4.48,20.02,1.19,6,4,18.07,11.06,44.52-6.22.31-12.43.61-18.64.91-12.35-47.55-16.83-66.89-17.37-71.85-.05-.43-.16-1.52-.37-3.29-.56-4.61-1.19-8.62-1.56-13.81-.11-1.45-.25-3.78,1.09-5.94.33-.54.73-1.03,1.19-1.47,7.53-7.38,6.02-6.34,8.5-8.4,8.41-7,21.76-15.82,21.76-15.82,4.19-2.77,9.71-6.37,16.28-10.51.45.71,3.9,5.94,10.06,6.4,1.51.11,3.03-.07,4.48-.54h-.01Z"/>
    <path class="cls-5" d="M282.05,118.7c-1.56,1.3-2.97,2.78-4.2,4.39-2.32,3.04-4,6.53-4.94,10.24-5.01,2.71-10.24,5-15.63,6.86-6.75,2.32-12.8,3.6-20.84,5.3-3.48.74-6.37,1.29-8.32,1.65-5.49-.55-10.83,1.97-13.89,6.56h22.58l50-10.95c3.65-3.22,6.66-7.09,8.87-11.43l-13.62-12.62h0Z"/>
    <path class="cls-5" d="M326.11,79.49c-.48,1.02-3.2,6.6-9.51,8.59-5.86,1.85-12.53-.15-16.97-5.08h-.01s-.09-.09-.13-.15c.07-.02.16-.05.23-.07.76-.3,1.46-.75,2.06-1.31,1.1-.9,1.66-1.34,2.48-2.11,2.44-2.26,2.56-1.96,3.8-3.23,1.42-1.33,2.52-2.97,3.23-4.78.44-1.26.69-2.58.74-3.91.56.14,1.14.14,1.7.02.18-.05.36-.1.54-.17.3.83.66,1.64,1.07,2.42,2.87,5.48,7.74,8.38,10.78,9.79h-.01Z"/>
    <path class="cls-21" d="M359.75,176.66c-4.61,1.25-9.39,1.77-14.17,1.57-2.11-.1-4.21-.4-6.27-.88-2.42-.59-5.42-1.59-10.14-1.79-3.6-.17-7.2.21-10.69,1.1-.61.16-1.17.33-1.68.5-.01,0-.02,0-.04,0-.5.17-.98.36-1.48.58-.01,0-.03,0-.05,0-1.44.47-2.96.65-4.48.54-6.16-.47-9.6-5.69-10.06-6.4.89-13.06-1.17-26.15-6.03-38.3-3.13-6.5-8.94-11.31-15.91-13.16,1.9-5.63,3.09-10.28,3.84-13.53.93-4.05,1.32-6.54,2.93-10.24,1.11-2.88,2.71-5.54,4.75-7.86,2.39-2.58,5.34-4.57,8.62-5.83.17-.07.34-.15.53-.21l.07.07c.04.05.09.1.13.15,4.44,4.93,11.11,6.93,16.97,5.08,6.3-1.99,9.03-7.57,9.51-8.59,3.14-.56,6.36-.56,9.51,0,1.96.34,13.83,2.48,17.73,12.07,2.42,5.92.56,11.72-.37,14.62-1.23,3.82-3.29,7.31-6.02,10.24,1.32,13.25,3.57,26.38,6.76,39.31,1.84,7.44,3.88,14.42,6.03,20.94h0Z"/>
    <path class="cls-5" d="M328.14,110.77c-1.33.93-2.59,1.96-3.77,3.09-2.45,2.4-4.53,5.15-6.17,8.16-1.62,2.95-2.82,6.11-3.57,9.39-2.76,1.7-5.62,3.24-8.57,4.59-6.38,2.91-13.1,4.99-20,6.19-10.95,2.09-29.6,6.18-54.12,11.5h35.51c6.08.33,12.17.27,18.24-.16,6.39-.46,6.29-.9,12.98-1.28,5.99-.34,9.21-.17,14.63-1.28,2.29-.48,4.55-1.09,6.76-1.83,11.59-4.03,20.45-22.6,21.76-25.41-2.72-5.92-7.63-10.57-13.69-12.96h0Z"/>
    <path class="cls-5" d="M310.86,61.21c-.11.73-.15,1.46-.13,2.2.02.63.04,1.48,0,2.58-.02.74-.29,1.46-.75,2.04-1.85,2.22-3.93,4.24-6.21,6.01-.83.66-1.66,1.25-2.47,1.79-.82-1.24-1.95-2.23-3.29-2.88-3.91-1.86-7.91.27-8.88.85-.03.01-.05.03-.07.05l-.1.06c-.33-1-.59-2.02-.78-3.05-.09-.5-.01-.13-.47-3.84-.29-2.29-.29-2.27-.33-2.72-.15-2,.06-2.35-.18-3.97-.21-1.34-.38-2.02-.38-2.02-.2-.59-.33-1.2-.37-1.83,0-.53.09-1.05.28-1.55.29-1.39.41-2.8.36-4.22.67-1.35,1.63-2.53,2.82-3.46.8-.62,1.7-1.12,2.65-1.47,2.77,2.94,4.97,3.62,6.49,3.65,1.2-.04,2.4.08,3.57.37,1.03.2,2,.64,2.83,1.29.96.81,1.14,1.57,2.2,2.28.68.45,1.47.74,2.28.82.09,1.86.48,3.69,1.15,5.42.05.13.1.26.15.38-.21.38-.33.8-.37,1.24v-.02Z"/>
    <path class="cls-12" d="M319.35,51.25c-.37,1.62-.9,3.74-1.66,6.23-.16-.38-.41-.72-.74-.98-.49-.34-1.1-.47-1.69-.37-.61.15-1.15.49-1.55.98-.61.58-1.16,1.23-1.62,1.94,0,.07-.01.14-.01.21,0,.05-.01.1-.01.15-.02.39-.15,1.77-.13,3.65,0,.96.04,1.47.06,1.97.01.2.02.39.02.61.01.12.01.25.01.37v.22c0,.36,0,.76-.02,1.2-.05,1.33-.3,2.65-.74,3.91-.7,1.82-1.81,3.45-3.23,4.78-1.24,1.26-1.36.97-3.8,3.23-.82.77-1.37,1.21-2.48,2.11-.6.56-1.3,1.01-2.06,1.31-.07.02-.15.05-.25.07-.2.06-.4.1-.6.13-.43.05-.86.07-1.29.07-.97.04-1.95-.06-2.89-.28-.82-.16-1.59-.49-2.27-.98-.65-.57-1.14-1.3-1.4-2.12-.37-.93-.75-1.85-1.09-2.8-.34-.93-.65-1.86-.92-2.82-.02-.07-.05-.2.06-.23.02-.02.05-.04.07-.05.97-.58,4.97-2.71,8.88-.85,1.33.65,2.47,1.65,3.29,2.88.81-.54,1.63-1.13,2.47-1.79,2.28-1.77,4.36-3.79,6.21-6.01.46-.58.73-1.29.75-2.04.04-1.09.02-1.95,0-2.58-.02-.73.03-1.47.13-2.2.03-.43.16-.86.37-1.24-.05-.12-.1-.25-.15-.38-.67-1.73-1.06-3.56-1.15-5.42-.82-.09-1.6-.37-2.28-.82-1.05-.71-1.24-1.47-2.2-2.28-.83-.64-1.8-1.09-2.83-1.29-1.17-.29-2.37-.41-3.57-.37-1.52-.04-3.72-.71-6.49-3.65-.95.35-1.85.85-2.65,1.47-1.19.93-2.15,2.11-2.82,3.46-.32.09-2.31-1.88-4.13-3.1-1.1-.78-1.86-1.96-2.1-3.29-.36-1.52-.23-3.83,1.19-5.11,1.3-1.2,2.39-.31,4.93-1.64,1.32-.7,1.39-1.13,2.93-2.2,1.6-1.08,3.35-1.91,5.2-2.48,2.49-.69,4.65-.37,8.97.28,2.43.42,4.85.97,7.22,1.64,3.39.87,4.22,1.21,5.11,1.91,1.39,1.16,2.43,2.68,3.02,4.39.5,1.38.75,2.84.74,4.3.03.96-.02,2.27-.82,5.85v.05Z"/>
    <path class="cls-5" d="M318.07,59.97c-.06.69-.2.64-.28,1.5-.07.71,0,.93-.1,1.5-.09.49-.26.97-.49,1.41-.47.95-1.17,1.77-2.04,2.39-.28.2-.58.37-.9.51h-.01c-.18.08-.36.14-.54.18-.56.12-1.15.11-1.7-.02.02-.44.02-.85.02-1.2v-.22c0-.12,0-.25-.01-.37,0-.22-.01-.42-.02-.61-.02-.5-.06-1.02-.06-1.97-.01-1.89.11-3.26.13-3.65,0-.05.01-.1.01-.15,0-.07,0-.14.01-.21.46-.71,1-1.36,1.62-1.94.39-.49.94-.83,1.55-.98.59-.1,1.2.03,1.69.37.33.26.58.6.74.98.35.78.49,1.64.38,2.49h0Z"/>
  </g>
  <g>
    <polygon class="cls-15" points="101.07 99.25 120.84 79.49 286.18 157.33 123.82 157.33 101.07 99.25"/>
    <circle class="cls-2" cx="111.31" cy="89.02" r="6.56"/>
    <path class="cls-8" d="M100.08,157.32h-4.29c-.06-3.85-1.65-7.51-4.42-10.19,5.01.8,8.7,5.12,8.71,10.19Z"/>
    <path class="cls-7" d="M90.41,76.92l-1.14-1.14-28.04,28.04c.29.77.29,1.62,0,2.39l28.36,28.36c.06,0,.11,0,.16,0,2.05,0,3.71,1.65,3.72,3.7,0,1.42-.81,2.72-2.09,3.34v5.54c2.76,2.68,4.35,6.34,4.42,10.19h-16.39c0-5.07,3.7-9.39,8.71-10.19v-5.54c-1.84-.89-2.6-3.09-1.72-4.93.07-.15.15-.29.25-.43l-27.72-27.72c-.38.13-.78.2-1.19.21-2.05,0-3.71-1.68-3.7-3.73,0-2.04,1.66-3.69,3.7-3.7.41,0,.81.08,1.19.22l28.07-28.06c-2.19-2.45-1.98-6.22.47-8.41,2.36-2.11,5.95-2,8.19.24l3.29,3.3c6.91-3.25,15.11-1.82,20.52,3.57l4.35,4.37-25.65,25.65-4.35-4.35c-5.5-5.51-6.87-13.91-3.41-20.89v-.02Z"/>
  </g>
  <g>
    <g>
      <path class="cls-25" d="M152.68,142.04c-.58-.19-.36-2.76.16-4.65.28-1.02.68-2,1.2-2.93-.02,1.54.04,2.76.1,3.61.18.89.1,1.81-.21,2.66-.29.63-.9,1.42-1.25,1.31h0Z"/>
      <path class="cls-29" d="M151.32,147.16c-.41.24-2.44-1.79-3.45-4.28-.54-1.34-.79-2.79-.73-4.23.07.8.34,1.58.78,2.25.3.42.67.8,1.1,1.1,1.89,1.48,2.75,4.9,2.3,5.17h0Z"/>
      <path class="cls-10" d="M155.66,149.25c-1.41,0-3.6-4.43-2.4-7.63.72-1.92,2.29-2.42,3.92-5.64.45-.89.81-1.82,1.1-2.77.16.83.16,1.68,0,2.51-.35,1.78-1.24,2.27-1.36,3.66-.12,1.4.71,1.81,1.1,3.29.75,2.89-1.07,6.58-2.35,6.58h-.01Z"/>
      <path class="cls-25" d="M152.21,146.85c-.44.15-1.38-1.22-1.83-2.35-.6-1.51-.33-2.57-.42-3.97-.15-1.85-.8-3.62-1.88-5.12.68.59,1.29,1.26,1.83,1.99,2.89,3.94,3.09,9.19,2.3,9.46h0Z"/>
      <path class="cls-29" d="M152.7,147.26c-.65,0-1.15-2.25-1.31-2.98-.67-3.39-.48-6.89.57-10.19.45.51.8,1.09,1.05,1.72.59,1.55.13,2.36.44,4.91.23,1.86.53,1.95.48,3.19-.07,1.56-.64,3.34-1.22,3.34h-.01Z"/>
      <path class="cls-23" d="M153.46,148.26c-.55-.11-.82-2.39-.37-4.39.52-2.27,1.59-2.51,1.93-4.91.03-.98.11-1.96.26-2.93.25-1.06.67-2.06,1.25-2.98-.1.68-.24,1.71-.31,2.98-.07,1.15-.04,1.75-.05,2.77.02,1.49-.09,2.97-.31,4.44-.46,2.5-1.77,5.14-2.4,5.02h0Z"/>
      <path class="cls-25" d="M154.72,148.41c-.46-.1-.39-2.33-.21-3.66.46-2.95,1.87-5.67,4.02-7.73-.09.75-.25,1.82-.52,3.08-.87,4.01-2.61,8.46-3.29,8.31Z"/>
      <path class="cls-29" d="M150.95,148.73c-.33-.55,1.61-2.93,4.13-3.92,1.41-.55,2.35-.41,3.5-1.31.83-.68,1.45-1.59,1.78-2.61.15.69.13,1.41-.05,2.09-.38,1.13-1.14,2.09-2.14,2.72-2.69,1.99-6.81,3.72-7.21,3.03h0Z"/>
      <polygon class="cls-2" points="158.37 146.27 149.8 146.27 148.71 146.27 149.8 157.3 158.37 157.3 159.47 146.27 158.37 146.27"/>
    </g>
    <g>
      <ellipse class="cls-23" cx="116.51" cy="144.43" rx="2.31" ry="4.22"/>
      <path class="cls-25" d="M118.64,140.13c-.1-.28-.45-.3-1.5-.07s-1.83.66-1.73.93,1.03.3,2.09.07,1.24-.66,1.15-.93h0Z"/>
      <path class="cls-29" d="M119.56,144.36c-.23-.22-.52.04-1.37.59s-1.36,1.17-1.13,1.39.52-.04,1.37-.59,1.36-1.17,1.13-1.39Z"/>
      <path class="cls-29" d="M119.51,140.08c-.13-.36-.6.25-1.74.51s-1.97.76-1.84,1.12.8,0,1.94-.26,1.76-1.01,1.64-1.37Z"/>
      <path class="cls-25" d="M120.67,144.32c-.13-.36-1.16-.44-2.31-.18s-1.38.76-1.26,1.12.22,0,1.36-.26,2.33-.32,2.2-.68h.01Z"/>
      <path class="cls-25" d="M119.95,141.1c-.21-.33-.66-.26-1.72.17s-1.75,1.05-1.54,1.38.42.19,1.48-.23,1.99-.98,1.78-1.32Z"/>
      <path class="cls-29" d="M120.35,142.29c-.65-.12-1.31-.1-1.96.04-1.15.26-1.97.76-1.84,1.12s.87.21,2.01-.05,2.36-1.12,1.78-1.12h0Z"/>
      <path class="cls-25" d="M120.28,145.83c-.74-.28-1.54-.34-2.31-.18-1.15.26-1.38.76-1.26,1.12s.87.21,2.01-.05,2.47-.7,1.55-.89h0Z"/>
      <path class="cls-25" d="M120.31,143.41c-.6-.37-1.35-.39-1.97-.06-1.06.44-1.73,1.06-1.52,1.39s.74-.03,1.79-.47,2.47-.4,1.69-.87h0Z"/>
      <ellipse class="cls-25" cx="114.18" cy="146.33" rx=".53" ry="1.96" transform="translate(-53 226.95) rotate(-77.78)"/>
      <ellipse class="cls-29" cx="115.41" cy="141.35" rx=".56" ry="1.84" transform="translate(-65.36 166.31) rotate(-58.63)"/>
      <path class="cls-29" d="M116.94,146.11c-.13.36-1.16.44-2.31.18s-1.98-1.06-1.85-1.42.81.3,1.96.56,2.33.32,2.2.68h0Z"/>
      <path class="cls-25" d="M118.1,142.62c-.16.45-1.22.61-2.37.35s-1.96-1.04-1.8-1.49.84.16,1.98.42,2.35.27,2.19.72Z"/>
      <path class="cls-25" d="M116.93,145.6c-.21.33-1.25.26-2.31-.17s-1.9-1.43-1.69-1.76.57.19,1.63.62,2.58.98,2.36,1.32h.01Z"/>
      <path class="cls-29" d="M117.13,144.51c-.13.36,0,.49-1.14.23-.83-.11-1.62-.44-2.29-.93-.29-.25.15-.45,1.29-.19s2.45,0,2.13.89h.01Z"/>
      <path class="cls-25" d="M118.06,141.05c-.13.36-1.16.44-2.31.18s-1.58-1.14-1.45-1.49.48.16,1.63.42,2.45,0,2.13.89h0Z"/>
      <path class="cls-25" d="M116.92,143.77c-.1.37-1.25.24-2.31-.19s-1.73-1.06-1.52-1.39.74.03,1.79.47,2.27.25,2.03,1.12h0Z"/>
      <polygon class="cls-2" points="120.76 146.27 112.19 146.27 111.09 146.27 112.19 157.3 120.76 157.3 121.85 146.27 120.76 146.27"/>
    </g>
    <g>
      <path class="cls-32" d="M132.02,144.43c0,2.33,1.04,4.22,2.31,4.22s2.31-1.89,2.31-4.22-1.04-3.98-2.31-3.98-2.31,1.65-2.31,3.98Z"/>
      <path class="cls-1" d="M132.2,140.13c.1-.28.45-.3,1.5-.07s1.83.66,1.73.93-1.03.3-2.09.07-1.24-.66-1.15-.93h0Z"/>
      <path class="cls-17" d="M131.37,144.51c.23-.22.71.03,1.56.58s1.17,1.18.94,1.4-.52-.04-1.37-.59-1.36-1.17-1.13-1.39Z"/>
      <path class="cls-17" d="M131.33,140.08c.13-.36.6.25,1.74.51s1.97.76,1.84,1.12-.8,0-1.94-.26-1.77-1.01-1.64-1.37Z"/>
      <path class="cls-1" d="M130.17,144.32c.13-.36,1.16-.44,2.31-.18s1.38.76,1.26,1.12-.22,0-1.36-.26-2.33-.32-2.2-.68h0Z"/>
      <path class="cls-1" d="M130.89,141.1c.21-.33.66-.26,1.72.17s1.75,1.05,1.54,1.38-.42.19-1.48-.23-1.99-.98-1.78-1.32Z"/>
      <path class="cls-17" d="M130.49,142.29c.65-.12,1.31-.1,1.96.04,1.15.26,1.97.76,1.84,1.12s-.87.21-2.01-.05-2.36-1.12-1.78-1.12h-.01Z"/>
      <path class="cls-1" d="M130.55,145.83c.74-.28,1.54-.34,2.31-.18,1.15.26,1.38.76,1.26,1.12s-.87.21-2.01-.05-2.47-.7-1.55-.89h0Z"/>
      <path class="cls-1" d="M130.53,143.41c.6-.37,1.35-.39,1.97-.06,1.06.44,1.73,1.06,1.52,1.39s-.74-.03-1.79-.47-2.47-.4-1.69-.87h-.01Z"/>
      <ellipse class="cls-27" cx="136.66" cy="146.32" rx="1.96" ry=".53" transform="translate(-27.88 32.24) rotate(-12.22)"/>
      <ellipse class="cls-17" cx="135.43" cy="141.33" rx="1.84" ry=".56" transform="translate(-53.77 91.16) rotate(-31.37)"/>
      <path class="cls-17" d="M133.9,146.11c.13.36,1.16.44,2.31.18s1.98-1.06,1.85-1.42-.81.3-1.96.56-2.33.32-2.2.68h0Z"/>
      <path class="cls-1" d="M132.74,142.62c.16.45,1.22.61,2.37.35s1.96-1.04,1.8-1.49-.84.16-1.98.42-2.35.27-2.19.72Z"/>
      <path class="cls-1" d="M133.9,145.6c.21.33,1.25.26,2.31-.17s1.9-1.43,1.69-1.76-.57.19-1.63.62-2.58.98-2.36,1.32h0Z"/>
      <path class="cls-17" d="M133.71,144.51c.13.36,0,.49,1.14.23.83-.11,1.62-.44,2.29-.93.29-.25-.15-.45-1.29-.19s-2.45,0-2.13.89h0Z"/>
      <path class="cls-1" d="M132.77,141.05c.13.36,1.16.44,2.31.18s1.58-1.14,1.45-1.49-.48.16-1.63.42-2.45,0-2.13.89h0Z"/>
      <path class="cls-1" d="M133.92,143.77c.1.37,1.25.24,2.31-.19s1.73-1.06,1.52-1.39-.74.03-1.79.47-2.27.25-2.03,1.12h-.01Z"/>
      <polygon class="cls-2" points="138.78 146.27 130.21 146.27 129.11 146.27 130.21 157.3 138.78 157.3 139.87 146.27 138.78 146.27"/>
    </g>
  </g>
  <g>
    <path class="cls-7" d="M178.07,153.69h51.49v3.63h-49.4c-1.15,0-2.09-.94-2.09-2.09h0v-1.54h0Z"/>
    <path class="cls-8" d="M215.77,153.69h51.69v3.63h-49.6c-1.15,0-2.09-.94-2.09-2.09h0v-1.54h0Z"/>
    <rect class="cls-30" x="240.46" y="154.89" width="2.71" height="1.23"/>
    <rect class="cls-30" x="245.7" y="154.89" width="16.97" height="1.23"/>
    <polygon class="cls-34" points="198.91 107 161.2 107 178.07 153.69 215.77 153.69 198.91 107"/>
    <path class="cls-11" d="M194.66,130.51c.51,2.31-.58,4.67-2.66,5.78-.17.11-.37.19-.57.22-.23,0-.42-.18-.47-.41l-.37-2.12c-.06-.31-.29-.56-.59-.66h-.05.24c.71.02,1.38-.29,1.83-.84.44-.58.61-1.31.47-2.02-.09-.72-.4-1.39-.9-1.93h0l-.08-.08h0c.05-.25.05-.5,0-.75-.06-.32-.18-.63-.36-.91-.52-.1-1.05.07-1.42.44-.07.07-.14.15-.19.23-.02,0-.03,0-.05,0-1-.3-2.07-.3-3.07,0-.02,0-.03,0-.05,0-.09-.08-.18-.16-.27-.23-.44-.36-1.01-.52-1.57-.44-.09.29-.1.6-.04.91.05.26.13.51.26.75h0s-.04.05-.05.08h0c-.32.59-.4,1.28-.23,1.93.3,1.6,1.66,2.78,3.29,2.85h.24-.04c-.25.09-.4.35-.35.62,0,.06-.02.12-.07.17h0c-.08.07-.17.13-.27.18-.1.05-.21.07-.32.08-.12,0-.24,0-.36-.04-.13-.04-.26-.09-.38-.16-.06-.04-.12-.08-.18-.12-.03-.02-.06-.04-.08-.07l-.04-.04s-.03-.02-.04-.04c-.05-.06-.1-.11-.15-.18-.03-.04-.07-.09-.1-.13l-.12-.12c-.15-.13-.33-.24-.52-.32-.17-.07-.35-.12-.53-.14-.06,0-.12.03-.14.09h0c0,.08.04.16.12.18h0c.15.05.3.12.43.2.13.08.24.18.34.29.02.03.04.05.06.08s.03.05.05.09.04.08.06.12.06.09.09.14c.02.02.03.04.05.07s.03.04.05.06c.04.04.07.08.11.12.07.08.15.15.23.22.16.14.34.25.54.35.19.09.4.16.61.19s.42.03.62,0c.05,0,.1-.02.15-.03l.16.93c.04.17-.07.34-.23.39-.19,0-.39-.03-.56-.13-2.49-1.01-4.31-3.21-4.85-5.85-.61-3.49,1.67-6.32,5.07-6.33s6.66,2.83,7.26,6.32v.02Z"/>
  </g>
  <g>
    <path class="cls-7" d="M116.64,322.67l-1.74-152.87c-.01-1.64,1.31-2.98,2.95-3,1.63,0,2.97,1.29,2.99,2.93v.07l-1.74,152.87c0,.68-.56,1.22-1.24,1.21-.67,0-1.21-.55-1.21-1.21h-.01Z"/>
    <path class="cls-7" d="M150.32,321.9l-1.74-152.11c0-1.64,1.31-2.98,2.95-2.99,1.63,0,2.97,1.29,2.99,2.93v.07l-1.74,152.11c0,.68-.57,1.22-1.25,1.21-.66-.01-1.19-.54-1.21-1.21h0Z"/>
    <path class="cls-7" d="M246.29,324.07l-1.74-154.24c-.03-1.64,1.27-3,2.91-3.03s3,1.27,3.03,2.91v.12l-1.74,154.24c0,.68-.56,1.22-1.24,1.22s-1.21-.55-1.22-1.22h0Z"/>
    <path class="cls-7" d="M284.96,323.26l-1.74-153.44c-.03-1.64,1.28-2.99,2.92-3.02s2.99,1.28,3.02,2.92v.11l-1.74,153.44c0,.68-.56,1.22-1.24,1.22s-1.21-.55-1.22-1.22h0Z"/>
    <rect class="cls-4" x="64.26" y="157.33" width="165.3" height="9.15"/>
    <rect class="cls-7" x="229.55" y="157.33" width="94.27" height="9.15"/>
    <rect class="cls-31" x="87.16" y="166.48" width="154.53" height="3.33"/>
    <rect class="cls-35" x="241.69" y="166.48" width="66.37" height="3.33"/>
  </g>
</svg>